<svg width="38" height="16" viewBox="0 0 38 16" fill="none" xmlns="http://www.w3.org/2000/svg">
<g filter="url(#filter0_dd_984_4374)">
<mask id="path-1-outside-1_984_4374" maskUnits="userSpaceOnUse" x="4" y="0" width="30" height="8" fill="black">
<rect fill="white" x="4" width="30" height="8"/>
<path d="M5.75 6.25V1H7.25V5.5H10.25V6.25H5.75ZM11.21 6.25V5.5H10.46V1.75H11.21V1H14.96V1.75H15.71V5.5H14.96V6.25H11.21ZM11.96 5.5H14.21V1.75H11.96V5.5ZM17.42 6.25V5.5H16.67V4.75H15.92V2.5H16.67V1.75H17.42V1H21.17V1.75H18.17V2.5H17.42V4.75H18.17V5.5H19.67V4H18.92V3.25H21.17V6.25H17.42ZM22.13 6.25V5.5H23.63V1.75H22.13V1H26.63V1.75H25.13V5.5H26.63V6.25H22.13ZM26.84 6.25V1H28.34V1.75H29.09V2.5H29.84V3.25H30.59V1H32.09V6.25H30.59V4.75H29.84V4H29.09V3.25H28.34V6.25H26.84Z"/>
</mask>
<path d="M5.75 6.25V1H7.25V5.5H10.25V6.25H5.75ZM11.21 6.25V5.5H10.46V1.75H11.21V1H14.96V1.75H15.71V5.5H14.96V6.25H11.21ZM11.96 5.5H14.21V1.75H11.96V5.5ZM17.42 6.25V5.5H16.67V4.75H15.92V2.5H16.67V1.75H17.42V1H21.17V1.75H18.17V2.5H17.42V4.75H18.17V5.5H19.67V4H18.92V3.25H21.17V6.25H17.42ZM22.13 6.25V5.5H23.63V1.75H22.13V1H26.63V1.75H25.13V5.5H26.63V6.25H22.13ZM26.84 6.25V1H28.34V1.75H29.09V2.5H29.84V3.25H30.59V1H32.09V6.25H30.59V4.75H29.84V4H29.09V3.25H28.34V6.25H26.84Z" fill="white"/>
<path d="M5.75 6.25H4.75V7.25H5.75V6.25ZM5.75 1V0H4.75V1H5.75ZM7.25 1H8.25V0H7.25V1ZM7.25 5.5H6.25V6.5H7.25V5.5ZM10.25 5.5H11.25V4.5H10.25V5.5ZM10.25 6.25V7.25H11.25V6.25H10.25ZM6.75 6.25V1H4.75V6.25H6.75ZM5.75 2H7.25V0H5.75V2ZM6.25 1V5.5H8.25V1H6.25ZM7.25 6.5H10.25V4.5H7.25V6.5ZM9.25 5.5V6.25H11.25V5.5H9.25ZM10.25 5.25H5.75V7.25H10.25V5.25ZM11.21 6.25H10.21V7.25H11.21V6.25ZM11.21 5.5H12.21V4.5H11.21V5.5ZM10.46 5.5H9.46V6.5H10.46V5.5ZM10.46 1.75V0.75H9.46V1.75H10.46ZM11.21 1.75V2.75H12.21V1.75H11.21ZM11.21 1V0H10.21V1H11.21ZM14.96 1H15.96V0H14.96V1ZM14.96 1.75H13.96V2.75H14.96V1.75ZM15.71 1.75H16.71V0.75H15.71V1.75ZM15.71 5.5V6.5H16.71V5.5H15.71ZM14.96 5.5V4.5H13.96V5.5H14.96ZM14.96 6.25V7.25H15.96V6.25H14.96ZM11.96 5.5H10.96V6.5H11.96V5.5ZM14.21 5.5V6.5H15.21V5.5H14.21ZM14.21 1.75H15.21V0.75H14.21V1.75ZM11.96 1.75V0.75H10.96V1.75H11.96ZM12.21 6.25V5.5H10.21V6.25H12.21ZM11.21 4.5H10.46V6.5H11.21V4.5ZM11.46 5.5V1.75H9.46V5.5H11.46ZM10.46 2.75H11.21V0.75H10.46V2.75ZM12.21 1.75V1H10.21V1.75H12.21ZM11.21 2H14.96V0H11.21V2ZM13.96 1V1.75H15.96V1H13.96ZM14.96 2.75H15.71V0.75H14.96V2.75ZM14.71 1.75V5.5H16.71V1.75H14.71ZM15.71 4.5H14.96V6.5H15.71V4.5ZM13.96 5.5V6.25H15.96V5.5H13.96ZM14.96 5.25H11.21V7.25H14.96V5.25ZM11.96 6.5H14.21V4.5H11.96V6.5ZM15.21 5.5V1.75H13.21V5.5H15.21ZM14.21 0.75H11.96V2.75H14.21V0.75ZM10.96 1.75V5.5H12.96V1.75H10.96ZM17.42 6.25H16.42V7.25H17.42V6.25ZM17.42 5.5H18.42V4.5H17.42V5.5ZM16.67 5.5H15.67V6.5H16.67V5.5ZM16.67 4.75H17.67V3.75H16.67V4.75ZM15.92 4.75H14.92V5.75H15.92V4.75ZM15.92 2.5V1.5H14.92V2.5H15.92ZM16.67 2.5V3.5H17.67V2.5H16.67ZM16.67 1.75V0.75H15.67V1.75H16.67ZM17.42 1.75V2.75H18.42V1.75H17.42ZM17.42 1V0H16.42V1H17.42ZM21.17 1H22.17V0H21.17V1ZM21.17 1.75V2.75H22.17V1.75H21.17ZM18.17 1.75V0.75H17.17V1.75H18.17ZM18.17 2.5V3.5H19.17V2.5H18.17ZM17.42 2.5V1.5H16.42V2.5H17.42ZM17.42 4.75H16.42V5.75H17.42V4.75ZM18.17 4.75H19.17V3.75H18.17V4.75ZM18.17 5.5H17.17V6.5H18.17V5.5ZM19.67 5.5V6.5H20.67V5.5H19.67ZM19.67 4H20.67V3H19.67V4ZM18.92 4H17.92V5H18.92V4ZM18.92 3.25V2.25H17.92V3.25H18.92ZM21.17 3.25H22.17V2.25H21.17V3.25ZM21.17 6.25V7.25H22.17V6.25H21.17ZM18.42 6.25V5.5H16.42V6.25H18.42ZM17.42 4.5H16.67V6.5H17.42V4.5ZM17.67 5.5V4.75H15.67V5.5H17.67ZM16.67 3.75H15.92V5.75H16.67V3.75ZM16.92 4.75V2.5H14.92V4.75H16.92ZM15.92 3.5H16.67V1.5H15.92V3.5ZM17.67 2.5V1.75H15.67V2.5H17.67ZM16.67 2.75H17.42V0.75H16.67V2.75ZM18.42 1.75V1H16.42V1.75H18.42ZM17.42 2H21.17V0H17.42V2ZM20.17 1V1.75H22.17V1H20.17ZM21.17 0.75H18.17V2.75H21.17V0.75ZM17.17 1.75V2.5H19.17V1.75H17.17ZM18.17 1.5H17.42V3.5H18.17V1.5ZM16.42 2.5V4.75H18.42V2.5H16.42ZM17.42 5.75H18.17V3.75H17.42V5.75ZM17.17 4.75V5.5H19.17V4.75H17.17ZM18.17 6.5H19.67V4.5H18.17V6.5ZM20.67 5.5V4H18.67V5.5H20.67ZM19.67 3H18.92V5H19.67V3ZM19.92 4V3.25H17.92V4H19.92ZM18.92 4.25H21.17V2.25H18.92V4.25ZM20.17 3.25V6.25H22.17V3.25H20.17ZM21.17 5.25H17.42V7.25H21.17V5.25ZM22.13 6.25H21.13V7.25H22.13V6.25ZM22.13 5.5V4.5H21.13V5.5H22.13ZM23.63 5.5V6.5H24.63V5.5H23.63ZM23.63 1.75H24.63V0.75H23.63V1.75ZM22.13 1.75H21.13V2.75H22.13V1.75ZM22.13 1V0H21.13V1H22.13ZM26.63 1H27.63V0H26.63V1ZM26.63 1.75V2.75H27.63V1.75H26.63ZM25.13 1.75V0.75H24.13V1.75H25.13ZM25.13 5.5H24.13V6.5H25.13V5.5ZM26.63 5.5H27.63V4.5H26.63V5.5ZM26.63 6.25V7.25H27.63V6.25H26.63ZM23.13 6.25V5.5H21.13V6.25H23.13ZM22.13 6.5H23.63V4.5H22.13V6.5ZM24.63 5.5V1.75H22.63V5.5H24.63ZM23.63 0.75H22.13V2.75H23.63V0.75ZM23.13 1.75V1H21.13V1.75H23.13ZM22.13 2H26.63V0H22.13V2ZM25.63 1V1.75H27.63V1H25.63ZM26.63 0.75H25.13V2.75H26.63V0.75ZM24.13 1.75V5.5H26.13V1.75H24.13ZM25.13 6.5H26.63V4.5H25.13V6.5ZM25.63 5.5V6.25H27.63V5.5H25.63ZM26.63 5.25H22.13V7.25H26.63V5.25ZM26.84 6.25H25.84V7.25H26.84V6.25ZM26.84 1V0H25.84V1H26.84ZM28.34 1H29.34V0H28.34V1ZM28.34 1.75H27.34V2.75H28.34V1.75ZM29.09 1.75H30.09V0.75H29.09V1.75ZM29.09 2.5H28.09V3.5H29.09V2.5ZM29.84 2.5H30.84V1.5H29.84V2.5ZM29.84 3.25H28.84V4.25H29.84V3.25ZM30.59 3.25V4.25H31.59V3.25H30.59ZM30.59 1V0H29.59V1H30.59ZM32.09 1H33.09V0H32.09V1ZM32.09 6.25V7.25H33.09V6.25H32.09ZM30.59 6.25H29.59V7.25H30.59V6.25ZM30.59 4.75H31.59V3.75H30.59V4.75ZM29.84 4.75H28.84V5.75H29.84V4.75ZM29.84 4H30.84V3H29.84V4ZM29.09 4H28.09V5H29.09V4ZM29.09 3.25H30.09V2.25H29.09V3.25ZM28.34 3.25V2.25H27.34V3.25H28.34ZM28.34 6.25V7.25H29.34V6.25H28.34ZM27.84 6.25V1H25.84V6.25H27.84ZM26.84 2H28.34V0H26.84V2ZM27.34 1V1.75H29.34V1H27.34ZM28.34 2.75H29.09V0.75H28.34V2.75ZM28.09 1.75V2.5H30.09V1.75H28.09ZM29.09 3.5H29.84V1.5H29.09V3.5ZM28.84 2.5V3.25H30.84V2.5H28.84ZM29.84 4.25H30.59V2.25H29.84V4.25ZM31.59 3.25V1H29.59V3.25H31.59ZM30.59 2H32.09V0H30.59V2ZM31.09 1V6.25H33.09V1H31.09ZM32.09 5.25H30.59V7.25H32.09V5.25ZM31.59 6.25V4.75H29.59V6.25H31.59ZM30.59 3.75H29.84V5.75H30.59V3.75ZM30.84 4.75V4H28.84V4.75H30.84ZM29.84 3H29.09V5H29.84V3ZM30.09 4V3.25H28.09V4H30.09ZM29.09 2.25H28.34V4.25H29.09V2.25ZM27.34 3.25V6.25H29.34V3.25H27.34ZM28.34 5.25H26.84V7.25H28.34V5.25Z" fill="black" mask="url(#path-1-outside-1_984_4374)"/>
</g>
<defs>
<filter id="filter0_dd_984_4374" x="0.75" y="0" width="36.34" height="15.25" filterUnits="userSpaceOnUse" color-interpolation-filters="sRGB">
<feFlood flood-opacity="0" result="BackgroundImageFix"/>
<feColorMatrix in="SourceAlpha" type="matrix" values="0 0 0 0 0 0 0 0 0 0 0 0 0 0 0 0 0 0 127 0" result="hardAlpha"/>
<feOffset dy="4"/>
<feGaussianBlur stdDeviation="2"/>
<feComposite in2="hardAlpha" operator="out"/>
<feColorMatrix type="matrix" values="0 0 0 0 0 0 0 0 0 0 0 0 0 0 0 0 0 0 0.25 0"/>
<feBlend mode="normal" in2="BackgroundImageFix" result="effect1_dropShadow_984_4374"/>
<feColorMatrix in="SourceAlpha" type="matrix" values="0 0 0 0 0 0 0 0 0 0 0 0 0 0 0 0 0 0 127 0" result="hardAlpha"/>
<feOffset dy="4"/>
<feGaussianBlur stdDeviation="2"/>
<feComposite in2="hardAlpha" operator="out"/>
<feColorMatrix type="matrix" values="0 0 0 0 0 0 0 0 0 0 0 0 0 0 0 0 0 0 0.25 0"/>
<feBlend mode="normal" in2="effect1_dropShadow_984_4374" result="effect2_dropShadow_984_4374"/>
<feBlend mode="normal" in="SourceGraphic" in2="effect2_dropShadow_984_4374" result="shape"/>
</filter>
</defs>
</svg>
