<svg width="48" height="42" viewBox="0 0 48 42" fill="none" xmlns="http://www.w3.org/2000/svg">
<g filter="url(#filter0_dd_1029_4392)">
<mask id="path-1-outside-1_1029_4392" maskUnits="userSpaceOnUse" x="4" y="17" width="41" height="8" fill="black">
<rect fill="white" x="4" y="17" width="41" height="8"/>
<path d="M5.75 23.25V22.5H5V21.75H6.5V22.5H8.75V21H5.75V20.25H5V18.75H5.75V18H9.5V18.75H10.25V19.5H8.75V18.75H6.5V20.25H9.5V21H10.25V22.5H9.5V23.25H5.75ZM12.71 18.75V18H14.21V18.75H12.71ZM11.21 23.25V22.5H12.71V20.25H11.96V19.5H14.21V22.5H15.71V23.25H11.21ZM16.67 24V23.25H19.67V22.5H16.67V21.75H15.92V20.25H16.67V19.5H21.17V23.25H20.42V24H16.67ZM17.42 21.75H19.67V20.25H17.42V21.75ZM21.38 23.25V19.5H25.88V20.25H26.63V23.25H25.13V20.25H22.88V23.25H21.38ZM33.05 23.25V22.5H34.55V18.75H33.05V18H37.55V18.75H36.05V22.5H37.55V23.25H33.05ZM37.76 23.25V19.5H42.26V20.25H43.01V23.25H41.51V20.25H39.26V23.25H37.76Z"/>
</mask>
<path d="M5.75 23.25V22.5H5V21.75H6.5V22.5H8.75V21H5.75V20.25H5V18.75H5.75V18H9.5V18.75H10.25V19.5H8.75V18.75H6.5V20.25H9.5V21H10.25V22.5H9.5V23.25H5.75ZM12.71 18.75V18H14.21V18.75H12.71ZM11.21 23.25V22.5H12.71V20.25H11.96V19.5H14.21V22.5H15.71V23.25H11.21ZM16.67 24V23.25H19.67V22.5H16.67V21.75H15.92V20.25H16.67V19.5H21.17V23.25H20.42V24H16.67ZM17.42 21.75H19.67V20.25H17.42V21.75ZM21.38 23.25V19.5H25.88V20.25H26.63V23.25H25.13V20.25H22.88V23.25H21.38ZM33.05 23.25V22.5H34.55V18.75H33.05V18H37.55V18.75H36.05V22.5H37.55V23.25H33.05ZM37.76 23.25V19.5H42.26V20.25H43.01V23.25H41.51V20.25H39.26V23.25H37.76Z" fill="white"/>
<path d="M5.75 23.25H4.75V24.25H5.75V23.25ZM5.75 22.5H6.75V21.5H5.75V22.5ZM5 22.5H4V23.5H5V22.5ZM5 21.75V20.75H4V21.75H5ZM6.5 21.75H7.5V20.75H6.5V21.75ZM6.5 22.5H5.5V23.5H6.5V22.5ZM8.75 22.5V23.5H9.75V22.5H8.75ZM8.75 21H9.75V20H8.75V21ZM5.75 21H4.75V22H5.75V21ZM5.75 20.25H6.75V19.25H5.75V20.25ZM5 20.25H4V21.25H5V20.25ZM5 18.75V17.75H4V18.75H5ZM5.75 18.75V19.75H6.75V18.75H5.75ZM5.75 18V17H4.75V18H5.75ZM9.5 18H10.5V17H9.5V18ZM9.5 18.75H8.5V19.75H9.5V18.75ZM10.25 18.75H11.25V17.75H10.25V18.75ZM10.25 19.5V20.5H11.25V19.5H10.25ZM8.75 19.5H7.75V20.5H8.75V19.5ZM8.75 18.75H9.75V17.75H8.75V18.75ZM6.5 18.75V17.75H5.5V18.75H6.5ZM6.5 20.25H5.5V21.25H6.5V20.25ZM9.5 20.25H10.5V19.25H9.5V20.25ZM9.5 21H8.5V22H9.5V21ZM10.25 21H11.25V20H10.25V21ZM10.25 22.5V23.5H11.25V22.5H10.25ZM9.5 22.5V21.5H8.5V22.5H9.5ZM9.5 23.25V24.25H10.5V23.25H9.5ZM6.75 23.25V22.5H4.75V23.25H6.75ZM5.75 21.5H5V23.5H5.75V21.5ZM6 22.5V21.75H4V22.5H6ZM5 22.75H6.5V20.75H5V22.75ZM5.5 21.75V22.5H7.5V21.75H5.5ZM6.5 23.5H8.75V21.5H6.5V23.5ZM9.75 22.5V21H7.75V22.5H9.75ZM8.75 20H5.75V22H8.75V20ZM6.75 21V20.25H4.75V21H6.75ZM5.75 19.25H5V21.25H5.75V19.25ZM6 20.25V18.75H4V20.25H6ZM5 19.75H5.75V17.75H5V19.75ZM6.75 18.75V18H4.75V18.75H6.75ZM5.75 19H9.5V17H5.75V19ZM8.5 18V18.75H10.5V18H8.5ZM9.5 19.75H10.25V17.75H9.5V19.75ZM9.25 18.75V19.5H11.25V18.75H9.25ZM10.25 18.5H8.75V20.5H10.25V18.5ZM9.75 19.5V18.75H7.75V19.5H9.75ZM8.75 17.75H6.5V19.75H8.75V17.75ZM5.5 18.75V20.25H7.5V18.75H5.5ZM6.5 21.25H9.5V19.25H6.5V21.25ZM8.5 20.25V21H10.5V20.25H8.5ZM9.5 22H10.25V20H9.5V22ZM9.25 21V22.5H11.25V21H9.25ZM10.25 21.5H9.5V23.5H10.25V21.5ZM8.5 22.5V23.25H10.5V22.5H8.5ZM9.5 22.25H5.75V24.25H9.5V22.25ZM12.71 18.75H11.71V19.75H12.71V18.75ZM12.71 18V17H11.71V18H12.71ZM14.21 18H15.21V17H14.21V18ZM14.21 18.75V19.75H15.21V18.75H14.21ZM11.21 23.25H10.21V24.25H11.21V23.25ZM11.21 22.5V21.5H10.21V22.5H11.21ZM12.71 22.5V23.5H13.71V22.5H12.71ZM12.71 20.25H13.71V19.25H12.71V20.25ZM11.96 20.25H10.96V21.25H11.96V20.25ZM11.96 19.5V18.5H10.96V19.5H11.96ZM14.21 19.5H15.21V18.5H14.21V19.5ZM14.21 22.5H13.21V23.5H14.21V22.5ZM15.71 22.5H16.71V21.5H15.71V22.5ZM15.71 23.25V24.25H16.71V23.25H15.71ZM13.71 18.75V18H11.71V18.75H13.71ZM12.71 19H14.21V17H12.71V19ZM13.21 18V18.75H15.21V18H13.21ZM14.21 17.75H12.71V19.75H14.21V17.75ZM12.21 23.25V22.5H10.21V23.25H12.21ZM11.21 23.5H12.71V21.5H11.21V23.5ZM13.71 22.5V20.25H11.71V22.5H13.71ZM12.71 19.25H11.96V21.25H12.71V19.25ZM12.96 20.25V19.5H10.96V20.25H12.96ZM11.96 20.5H14.21V18.5H11.96V20.5ZM13.21 19.5V22.5H15.21V19.5H13.21ZM14.21 23.5H15.71V21.5H14.21V23.5ZM14.71 22.5V23.25H16.71V22.5H14.71ZM15.71 22.25H11.21V24.25H15.71V22.25ZM16.67 24H15.67V25H16.67V24ZM16.67 23.25V22.25H15.67V23.25H16.67ZM19.67 23.25V24.25H20.67V23.25H19.67ZM19.67 22.5H20.67V21.5H19.67V22.5ZM16.67 22.5H15.67V23.5H16.67V22.5ZM16.67 21.75H17.67V20.75H16.67V21.75ZM15.92 21.75H14.92V22.75H15.92V21.75ZM15.92 20.25V19.25H14.92V20.25H15.92ZM16.67 20.25V21.25H17.67V20.25H16.67ZM16.67 19.5V18.5H15.67V19.5H16.67ZM21.17 19.5H22.17V18.5H21.17V19.5ZM21.17 23.25V24.25H22.17V23.25H21.17ZM20.42 23.25V22.25H19.42V23.25H20.42ZM20.42 24V25H21.42V24H20.42ZM17.42 21.75H16.42V22.75H17.42V21.75ZM19.67 21.75V22.75H20.67V21.75H19.67ZM19.67 20.25H20.67V19.25H19.67V20.25ZM17.42 20.25V19.25H16.42V20.25H17.42ZM17.67 24V23.25H15.67V24H17.67ZM16.67 24.25H19.67V22.25H16.67V24.25ZM20.67 23.25V22.5H18.67V23.25H20.67ZM19.67 21.5H16.67V23.5H19.67V21.5ZM17.67 22.5V21.75H15.67V22.5H17.67ZM16.67 20.75H15.92V22.75H16.67V20.75ZM16.92 21.75V20.25H14.92V21.75H16.92ZM15.92 21.25H16.67V19.25H15.92V21.25ZM17.67 20.25V19.5H15.67V20.25H17.67ZM16.67 20.5H21.17V18.5H16.67V20.5ZM20.17 19.5V23.25H22.17V19.5H20.17ZM21.17 22.25H20.42V24.25H21.17V22.25ZM19.42 23.25V24H21.42V23.25H19.42ZM20.42 23H16.67V25H20.42V23ZM17.42 22.75H19.67V20.75H17.42V22.75ZM20.67 21.75V20.25H18.67V21.75H20.67ZM19.67 19.25H17.42V21.25H19.67V19.25ZM16.42 20.25V21.75H18.42V20.25H16.42ZM21.38 23.25H20.38V24.25H21.38V23.25ZM21.38 19.5V18.5H20.38V19.5H21.38ZM25.88 19.5H26.88V18.5H25.88V19.5ZM25.88 20.25H24.88V21.25H25.88V20.25ZM26.63 20.25H27.63V19.25H26.63V20.25ZM26.63 23.25V24.25H27.63V23.25H26.63ZM25.13 23.25H24.13V24.25H25.13V23.25ZM25.13 20.25H26.13V19.25H25.13V20.25ZM22.88 20.25V19.25H21.88V20.25H22.88ZM22.88 23.25V24.25H23.88V23.25H22.88ZM22.38 23.25V19.5H20.38V23.25H22.38ZM21.38 20.5H25.88V18.5H21.38V20.5ZM24.88 19.5V20.25H26.88V19.5H24.88ZM25.88 21.25H26.63V19.25H25.88V21.25ZM25.63 20.25V23.25H27.63V20.25H25.63ZM26.63 22.25H25.13V24.25H26.63V22.25ZM26.13 23.25V20.25H24.13V23.25H26.13ZM25.13 19.25H22.88V21.25H25.13V19.25ZM21.88 20.25V23.25H23.88V20.25H21.88ZM22.88 22.25H21.38V24.25H22.88V22.25ZM33.05 23.25H32.05V24.25H33.05V23.25ZM33.05 22.5V21.5H32.05V22.5H33.05ZM34.55 22.5V23.5H35.55V22.5H34.55ZM34.55 18.75H35.55V17.75H34.55V18.75ZM33.05 18.75H32.05V19.75H33.05V18.75ZM33.05 18V17H32.05V18H33.05ZM37.55 18H38.55V17H37.55V18ZM37.55 18.75V19.75H38.55V18.75H37.55ZM36.05 18.75V17.75H35.05V18.75H36.05ZM36.05 22.5H35.05V23.5H36.05V22.5ZM37.55 22.5H38.55V21.5H37.55V22.5ZM37.55 23.25V24.25H38.55V23.25H37.55ZM34.05 23.25V22.5H32.05V23.25H34.05ZM33.05 23.5H34.55V21.5H33.05V23.5ZM35.55 22.5V18.75H33.55V22.5H35.55ZM34.55 17.75H33.05V19.75H34.55V17.75ZM34.05 18.75V18H32.05V18.75H34.05ZM33.05 19H37.55V17H33.05V19ZM36.55 18V18.75H38.55V18H36.55ZM37.55 17.75H36.05V19.75H37.55V17.75ZM35.05 18.75V22.5H37.05V18.75H35.05ZM36.05 23.5H37.55V21.5H36.05V23.5ZM36.55 22.5V23.25H38.55V22.5H36.55ZM37.55 22.25H33.05V24.25H37.55V22.25ZM37.76 23.25H36.76V24.25H37.76V23.25ZM37.76 19.5V18.5H36.76V19.5H37.76ZM42.26 19.5H43.26V18.5H42.26V19.5ZM42.26 20.25H41.26V21.25H42.26V20.25ZM43.01 20.25H44.01V19.25H43.01V20.25ZM43.01 23.25V24.25H44.01V23.25H43.01ZM41.51 23.25H40.51V24.25H41.51V23.25ZM41.51 20.25H42.51V19.25H41.51V20.25ZM39.26 20.25V19.25H38.26V20.25H39.26ZM39.26 23.25V24.25H40.26V23.25H39.26ZM38.76 23.25V19.5H36.76V23.25H38.76ZM37.76 20.5H42.26V18.5H37.76V20.5ZM41.26 19.5V20.25H43.26V19.5H41.26ZM42.26 21.25H43.01V19.25H42.26V21.25ZM42.01 20.25V23.25H44.01V20.25H42.01ZM43.01 22.25H41.51V24.25H43.01V22.25ZM42.51 23.25V20.25H40.51V23.25H42.51ZM41.51 19.25H39.26V21.25H41.51V19.25ZM38.26 20.25V23.25H40.26V20.25H38.26ZM39.26 22.25H37.76V24.25H39.26V22.25Z" fill="black" mask="url(#path-1-outside-1_1029_4392)"/>
</g>
<defs>
<filter id="filter0_dd_1029_4392" x="0" y="17" width="48.01" height="16" filterUnits="userSpaceOnUse" color-interpolation-filters="sRGB">
<feFlood flood-opacity="0" result="BackgroundImageFix"/>
<feColorMatrix in="SourceAlpha" type="matrix" values="0 0 0 0 0 0 0 0 0 0 0 0 0 0 0 0 0 0 127 0" result="hardAlpha"/>
<feOffset dy="4"/>
<feGaussianBlur stdDeviation="2"/>
<feComposite in2="hardAlpha" operator="out"/>
<feColorMatrix type="matrix" values="0 0 0 0 0 0 0 0 0 0 0 0 0 0 0 0 0 0 0.04 0"/>
<feBlend mode="normal" in2="BackgroundImageFix" result="effect1_dropShadow_1029_4392"/>
<feColorMatrix in="SourceAlpha" type="matrix" values="0 0 0 0 0 0 0 0 0 0 0 0 0 0 0 0 0 0 127 0" result="hardAlpha"/>
<feOffset dy="4"/>
<feGaussianBlur stdDeviation="2"/>
<feComposite in2="hardAlpha" operator="out"/>
<feColorMatrix type="matrix" values="0 0 0 0 0 0 0 0 0 0 0 0 0 0 0 0 0 0 0.25 0"/>
<feBlend mode="normal" in2="effect1_dropShadow_1029_4392" result="effect2_dropShadow_1029_4392"/>
<feBlend mode="normal" in="SourceGraphic" in2="effect2_dropShadow_1029_4392" result="shape"/>
</filter>
</defs>
</svg>
